<?xml version="1.0" encoding="UTF-8"?>
<svg width="32.4193667px" height="32.4193667px" viewBox="0 0 32.4193667 32.4193667" version="1.1" xmlns="http://www.w3.org/2000/svg" xmlns:xlink="http://www.w3.org/1999/xlink">
    <title>原ID</title>
    <defs>
        <path d="M3,0 L29.4193667,0 L32.4193667,3 L32.4193667,29.4193667 L29.4193667,32.4193667 L3,32.4193667 L0,29.4193667 L0,3 L3,0 Z" id="path-1"></path>
        <filter x="-6.2%" y="-6.2%" width="112.3%" height="112.3%" filterUnits="objectBoundingBox" id="filter-2">
            <feGaussianBlur stdDeviation="2" in="SourceAlpha" result="shadowBlurInner1"></feGaussianBlur>
            <feOffset dx="0" dy="0" in="shadowBlurInner1" result="shadowOffsetInner1"></feOffset>
            <feComposite in="shadowOffsetInner1" in2="SourceAlpha" operator="arithmetic" k2="-1" k3="1" result="shadowInnerInner1"></feComposite>
            <feColorMatrix values="0 0 0 0 0.0274509804   0 0 0 0 0.607843137   0 0 0 0 0.623529412  0 0 0 0.455942861 0" type="matrix" in="shadowInnerInner1"></feColorMatrix>
        </filter>
    </defs>
    <g id="页面-5" stroke="none" stroke-width="1" fill="none" fill-rule="evenodd">
        <g id="2备份" transform="translate(-980.338847, -755.987311)">
            <g id="编组-20" transform="translate(536.911153, 202.500000)">
                <g id="编组-16" transform="translate(75.677695, 104.030885)">
                    <g id="编组-18备份-16" transform="translate(367.750000, 446.666109)">
                        <g id="原ID" transform="translate(0.000000, 2.790317)">
                            <g id="矩形">
                                <use fill-opacity="0.64" fill="#EDFEFF" fill-rule="evenodd" xlink:href="#path-1"></use>
                                <use fill="black" fill-opacity="1" filter="url(#filter-2)" xlink:href="#path-1"></use>
                                <path stroke="#86CDCF" stroke-width="1" d="M29.2122599,0.5 L31.9193667,3.20710678 L31.9193667,29.2122599 L29.2122599,31.9193667 L3.20710678,31.9193667 L0.5,29.2122599 L0.5,3.20710678 L3.20710678,0.5 L29.2122599,0.5 Z" stroke-linejoin="square"></path>
                            </g>
                            <g id="编组" transform="translate(7.332411, 10.709683)" fill="#079B9F" fill-rule="nonzero">
                                <path d="M2.56511431,1.18425064 L6.38916173,8.1358171 L6.38916173,1.13395428 C6.38916173,0.774259102 6.46994073,0.50296359 6.63302286,0.323116003 C6.796105,0.143268417 7.01558002,0.0518204911 7.29297206,0.0518204911 C7.57950889,0.0518204911 7.80355631,0.143268417 7.96968671,0.323116003 C8.1358171,0.50296359 8.21812024,0.774259102 8.21812024,1.13395428 L8.21812024,9.92362405 C8.21812024,10.742083 7.86147333,11.1520745 7.14665538,11.1520745 C6.96833192,11.1520745 6.80677392,11.1261643 6.66502964,11.0789162 C6.52176122,11.0286198 6.3876376,10.9524132 6.26265876,10.845724 C6.13767993,10.7390347 6.02184589,10.61558 5.91363251,10.4738357 C5.80694327,10.3305673 5.69872989,10.1872989 5.59204064,10.037934 L1.86096528,3.15038103 L1.86096528,10.0684166 C1.86096528,10.4250635 1.77408975,10.6948349 1.6003387,10.8762066 C1.42658764,11.0591025 1.20254022,11.1505504 0.931244708,11.1505504 C0.649280271,11.1505504 0.423708721,11.0575783 0.254530059,10.8731583 C0.0853513971,10.6887384 0,10.4204911 0,10.0684166 L0,1.42049111 C0,1.11566469 0.0350550381,0.876375953 0.106689246,0.701100762 C0.192040644,0.510584251 0.332260796,0.353598645 0.528873836,0.23319221 C0.725486876,0.112785775 0.937341236,0.0518204911 1.16443692,0.0518204911 C1.34276037,0.0518204911 1.49669771,0.0807790008 1.62320068,0.135647756 C1.75122777,0.190516511 1.86248942,0.265198984 1.95850974,0.358171041 C2.05453006,0.452667231 2.15359865,0.573073666 2.25266723,0.720914479 C2.35478408,0.868755292 2.45690093,1.02421677 2.56511431,1.18425064 Z M18,4.39407282 C18,4.93818798 17.9131245,5.4426757 17.7408975,5.90143946 C17.5686706,6.36020322 17.3202371,6.75647756 16.9940728,7.08569009 C16.6663844,7.41642676 16.2762066,7.66943268 15.8235394,7.84775614 C15.369348,8.02303133 14.8602879,8.11143099 14.2917866,8.11143099 C13.7293819,8.11143099 13.22337,8.0215072 12.7752752,7.84318374 C12.3256562,7.66638442 11.9370025,7.41033023 11.60779,7.0765453 C11.2785775,6.7442845 11.0286198,6.35105843 10.8594412,5.89839119 C10.6887384,5.44419983 10.603387,4.94276037 10.603387,4.39407282 C10.603387,3.84081287 10.6902625,2.6550381 10.8624894,2.19627434 C11.0347163,1.73751058 11.2816257,1.34276037 11.6032176,1.01812024 C11.9263336,0.69195597 12.3165114,0.440474174 12.7752752,0.263674852 C13.2325148,0.0883996613 13.7385267,0 14.2917866,0 C14.8541914,0 15.3647756,0.0899237934 15.8235394,0.268247248 C16.2823031,0.446570703 16.6740051,0.701100762 17.0001693,1.03031329 C17.3278577,1.36257409 17.5747671,1.75427604 17.7439458,2.2084674 C17.9161727,2.66265876 18,3.84538527 18,4.39407282 Z M16.1375106,4.39407282 C16.1375106,3.64877223 15.9713802,2.38983912 15.6360711,1.97375106 C15.3038103,1.55918713 14.8541914,1.35038103 14.2917866,1.35038103 C13.9290432,1.35038103 13.6104996,1.44487722 13.3331075,1.62929721 C13.0557155,1.81524132 12.842337,2.0895851 12.6929721,2.44928027 C12.5436071,2.81202371 12.4689246,3.91244708 12.4689246,4.39407282 C12.4689246,4.87112616 12.542083,5.29026249 12.6914479,5.64538527 C12.8392887,6.00355631 13.0480948,6.27637595 13.3239627,6.46689246 C13.5998307,6.65588484 13.9214225,6.75190517 14.2933108,6.75190517 C14.8557155,6.75190517 15.3053345,6.54309907 15.6375953,6.12548688 C15.9698561,5.70787468 16.1375106,5.13022862 16.1375106,4.39407282 Z M16.4011854,9.46790855 L11.8821338,9.46790855 C11.4477561,9.46790855 11.0895851,9.81083827 11.092614,10.2299746 C11.092614,10.6491109 11.4431837,10.9920406 11.885182,10.9920406 L16.4011854,10.9920406 C16.8370872,10.9920406 17.1906859,10.6506351 17.1906859,10.2314987 C17.1906859,9.81083827 16.8370872,9.46790855 16.4011854,9.46790855 Z" id="形状"></path>
                            </g>
                        </g>
                    </g>
                </g>
            </g>
        </g>
    </g>
</svg>